<svg xmlns="http://www.w3.org/2000/svg" viewBox="0 0 32 32">
  <defs>
    <linearGradient id="steel" x1="0%" y1="0%" x2="60%" y2="100%">
      <stop offset="0%"   stop-color="#d0d4d8"/>
      <stop offset="25%"  stop-color="#8c9198"/>
      <stop offset="50%"  stop-color="#c8cdd2"/>
      <stop offset="75%"  stop-color="#5a6068"/>
      <stop offset="100%" stop-color="#9ba2aa"/>
    </linearGradient>
    <linearGradient id="shine" x1="0%" y1="0%" x2="100%" y2="100%">
      <stop offset="0%"   stop-color="#ffffff" stop-opacity="0.4"/>
      <stop offset="50%"  stop-color="#ffffff" stop-opacity="0"/>
    </linearGradient>
  </defs>
  <!-- Heart shape -->
  <path d="M16 27 C16 27 3 18.5 3 10.5 C3 6.4 6.1 3 10 3 C12.4 3 14.5 4.3 16 6.2 C17.5 4.3 19.6 3 22 3 C25.9 3 29 6.4 29 10.5 C29 18.5 16 27 16 27Z"
        fill="url(#steel)"/>
  <!-- Highlight sheen -->
  <path d="M16 27 C16 27 3 18.5 3 10.5 C3 6.4 6.1 3 10 3 C12.4 3 14.5 4.3 16 6.2 C17.5 4.3 19.6 3 22 3 C25.9 3 29 6.4 29 10.5 C29 18.5 16 27 16 27Z"
        fill="url(#shine)"/>
</svg>
